<?xml version="1.0" encoding="UTF-8" standalone="no"?>
<!DOCTYPE svg PUBLIC "-//W3C//DTD SVG 1.1//EN" "http://www.w3.org/Graphics/SVG/1.1/DTD/svg11.dtd">
<svg width="100%" height="100%" viewBox="0 0 16 16" version="1.1" xmlns="http://www.w3.org/2000/svg" xmlns:xlink="http://www.w3.org/1999/xlink" xml:space="preserve" xmlns:serif="http://www.serif.com/" style="fill-rule:evenodd;clip-rule:evenodd;stroke-linecap:round;stroke-linejoin:round;stroke-miterlimit:1.5;">
    <rect id="Artboard1" x="0" y="0" width="16" height="16" style="fill:none;"/>
    <clipPath id="_clip1">
        <rect id="Artboard11" serif:id="Artboard1" x="0" y="0" width="16" height="16"/>
    </clipPath>
    <g clip-path="url(#_clip1)">
        <path d="M11.401,0.38L4.478,0.411L1.501,3.557L1.33,12.4L4.531,15.459L11.498,15.581L15.42,11.537L13.398,9.442L11.493,11.553L7.454,11.586L5.308,8.519L7.391,4.444L11.441,4.392L13.455,6.56L15.615,4.448L11.401,0.38Z" style="fill:none;stroke:black;stroke-width:1px;"/>
        <g transform="matrix(0.496573,0,0,0.496573,12.051,3.15564)">
            <circle cx="2.899" cy="6.762" r="1.51" style="fill:rgb(255,0,0);"/>
        </g>
        <g transform="matrix(0.496573,0,0,0.496573,13.9999,1.18243)">
            <circle cx="2.899" cy="6.762" r="1.51" style="fill:rgb(255,0,0);"/>
        </g>
        <g transform="matrix(0.496573,0,0,0.496573,12.0023,6.12762)">
            <circle cx="2.899" cy="6.762" r="1.51" style="fill:rgb(255,0,0);"/>
        </g>
        <g transform="matrix(0.496573,0,0,0.496573,13.9999,8.02775)">
            <circle cx="2.899" cy="6.762" r="1.51" style="fill:rgb(255,0,0);"/>
        </g>
        <g transform="matrix(0.496573,0,0,0.496573,3.01329,-2.73961)">
            <circle cx="2.899" cy="6.762" r="1.51" style="fill:rgb(255,0,0);"/>
        </g>
        <g transform="matrix(0.496573,0,0,0.496573,0.0266837,0.139804)">
            <circle cx="2.899" cy="6.762" r="1.51" style="fill:rgb(255,0,0);"/>
        </g>
        <g transform="matrix(0.496573,0,0,0.496573,0.0997653,9.13859)">
            <circle cx="2.899" cy="6.762" r="1.51" style="fill:rgb(255,0,0);"/>
        </g>
        <g transform="matrix(0.496573,0,0,0.496573,3.18381,12.1447)">
            <circle cx="2.899" cy="6.762" r="1.51" style="fill:rgb(255,0,0);"/>
        </g>
        <g transform="matrix(0.496573,0,0,0.496573,10.1509,12.169)">
            <circle cx="2.899" cy="6.762" r="1.51" style="fill:rgb(255,0,0);"/>
        </g>
        <g transform="matrix(0.496573,0,0,0.496573,4.91341,8.24699)">
            <circle cx="2.899" cy="6.762" r="1.51" style="fill:rgb(255,0,0);"/>
        </g>
        <g transform="matrix(0.496573,0,0,0.496573,3.93411,5.14833)">
            <circle cx="2.899" cy="6.762" r="1.51" style="fill:rgb(255,0,0);"/>
        </g>
        <g transform="matrix(0.496573,0,0,0.496573,4.91341,1.23116)">
            <circle cx="2.899" cy="6.762" r="1.51" style="fill:rgb(255,0,0);"/>
        </g>
    </g>
</svg>
