<?xml version="1.0" encoding="UTF-8" standalone="no"?>
<!DOCTYPE svg PUBLIC "-//W3C//DTD SVG 1.1//EN" "http://www.w3.org/Graphics/SVG/1.1/DTD/svg11.dtd">
<svg width="100%" height="100%" viewBox="0 0 16 16" version="1.1" xmlns="http://www.w3.org/2000/svg" xmlns:xlink="http://www.w3.org/1999/xlink" xml:space="preserve" xmlns:serif="http://www.serif.com/" style="fill-rule:evenodd;clip-rule:evenodd;stroke-linecap:round;stroke-linejoin:round;stroke-miterlimit:1.5;">
    <rect id="Artboard1" x="0" y="0" width="16" height="16" style="fill:none;"/>
    <clipPath id="_clip1">
        <rect id="Artboard11" serif:id="Artboard1" x="0" y="0" width="16" height="16"/>
    </clipPath>
    <g clip-path="url(#_clip1)">
        <path d="M11.42,1.413L7.904,0.395L4.459,1.444L1.54,4.512L0.451,8.376L1.505,12.497L4.531,15.459L11.498,15.581L15.42,11.537L13.496,9.481L11.493,11.553L7.454,11.586L4.373,8.499L7.547,5.535L11.479,5.484L13.591,7.515L15.565,5.423L11.42,1.413Z" style="fill:none;stroke:black;stroke-width:1px;"/>
        <g transform="matrix(0.76754,0,0,0.864315,0.819737,-0.719762)">
            <circle cx="2.899" cy="6.762" r="1.51" style="fill:rgb(255,0,0);"/>
        </g>
        <g transform="matrix(0.76754,0,0,0.864315,1.91109,7.0951)">
            <circle cx="2.899" cy="6.762" r="1.51" style="fill:rgb(255,0,0);"/>
        </g>
        <g transform="matrix(0.76754,0,0,0.864315,5.7698,-3.72098)">
            <circle cx="2.899" cy="6.762" r="1.51" style="fill:rgb(255,0,0);"/>
        </g>
        <g transform="matrix(0.76754,0,0,0.864315,10.8173,6.21812)">
            <circle cx="2.899" cy="6.762" r="1.51" style="fill:rgb(255,0,0);"/>
        </g>
        <g transform="matrix(0.496573,0,0,0.496573,11.9682,2.18609)">
            <circle cx="2.899" cy="6.762" r="1.51" style="fill:rgb(255,0,0);"/>
        </g>
    </g>
</svg>
